<svg width="23" height="34" viewBox="0 0 23 34" fill="none" xmlns="http://www.w3.org/2000/svg">
<path fill-rule="evenodd" clip-rule="evenodd" d="M4.53038 18.9331C4.53038 19.5322 3.85544 19.8602 3.42616 19.4423C1.31269 17.3848 -2.28882e-05 14.5087 -2.28882e-05 11.3261C-2.28882e-05 5.07087 5.07083 0 11.3261 0C17.5813 0 22.6522 5.07087 22.6522 11.3261C22.6522 14.5087 21.3394 17.3848 19.2259 19.4424C18.7967 19.8602 18.1217 19.5323 18.1217 18.9332C18.1217 18.7316 18.2064 18.5402 18.3494 18.3981C20.1674 16.5925 21.293 14.0908 21.293 11.3261C21.293 5.8215 16.8307 1.35913 11.3261 1.35913C5.82145 1.35913 1.35907 5.8215 1.35907 11.3261C1.35907 14.0908 2.48471 16.5925 4.30275 18.3981C4.44572 18.5401 4.53038 18.7316 4.53038 18.9331Z" fill="#374151"/>
<path d="M11.4564 10.7918C11.2407 10.5762 10.8911 10.5762 10.6755 10.7918L7.16168 14.3057C6.94603 14.5213 6.94603 14.8709 7.16168 15.0866C7.37731 15.3021 7.72686 15.3021 7.94249 15.0866L11.066 11.9631L14.1893 15.0866C14.405 15.3021 14.7546 15.3021 14.9702 15.0866C15.1859 14.8709 15.1859 14.5213 14.9702 14.3057L11.4564 10.7918ZM11.6181 33.8345L11.6181 11.1823H10.5138L10.5138 33.8345H11.6181Z" fill="#374151"/>
</svg>
