<svg width="70" height="42" viewBox="0 0 70 42" fill="none" xmlns="http://www.w3.org/2000/svg">
<path d="M0 16.8C0 7.52162 7.52162 0 16.8 0H53.2C62.4784 0 70 7.52162 70 16.8V25.2C70 34.4784 62.4784 42 53.2 42H16.8C7.52162 42 0 34.4784 0 25.2V16.8Z" fill="#185ADB"/>
<path fill-rule="evenodd" clip-rule="evenodd" d="M52.2751 21.5828L44.6923 14H48.4304L55.8984 21.468L55.8852 21.4813L56 21.5961L48.6177 28.9783H44.8796L52.2751 21.5828Z" fill="white"/>
<path fill-rule="evenodd" clip-rule="evenodd" d="M17.7251 21.5828L25.3086 14H21.5702L14.1015 21.468L14.1148 21.4813L14 21.5961L21.3829 28.9783H25.1213L17.7251 21.5828Z" fill="white"/>
<path fill-rule="evenodd" clip-rule="evenodd" d="M34.9066 20.0732L42.4894 27.6567V23.9183L35.0213 16.4496L35.0081 16.4628L34.8933 16.3481L27.5111 23.7309V27.4693L34.9066 20.0732Z" fill="white"/>
</svg>
